<?xml version="1.0" encoding="UTF-8"?>
<!DOCTYPE svg PUBLIC "-//W3C//DTD SVG 1.1//EN" "http://www.w3.org/Graphics/SVG/1.1/DTD/svg11.dtd">
<svg version="1.1" xmlns="http://www.w3.org/2000/svg" xmlns:xlink="http://www.w3.org/1999/xlink" x="0" y="0" width="143.398" height="155.887" viewBox="0, 0, 143.398, 155.887">
  <g id="Layer_1" transform="translate(-265.979, -593.56)">
    <path d="M265.979,626.943 L409.377,594.842 L409.377,749.033 L266.034,749.447 L265.979,626.943 z" fill="#000000"/>
    <path d="M275.586,705.402 L285.664,705.402 L289.297,724.598 L294.594,705.402 L304.648,705.402 L309.969,724.598 L313.602,705.402 L323.633,705.402 L316.063,739.762 L305.656,739.762 L299.633,718.129 L293.633,739.762 L283.227,739.762 z" fill="#FFFFFF"/>
    <path d="M348.266,734.09 L336.172,734.09 L334.508,739.762 L323.656,739.762 L336.57,705.402 L348.148,705.402 L361.063,739.762 L349.953,739.762 z M346.039,726.66 L342.242,714.309 L338.469,726.66 z" fill="#FFFFFF"/>
    <path d="M362.094,705.402 L373.789,705.402 L379.883,715.973 L385.789,705.402 L397.367,705.402 L386.68,722.043 L398.375,739.762 L386.445,739.762 L379.672,728.723 L372.875,739.762 L361.016,739.762 L372.875,721.856 z" fill="#FFFFFF"/>
    <g>
      <path d="M298.068,635.135 C286.588,635.135 277.281,625.828 277.281,614.348 C277.281,602.867 286.588,593.56 298.068,593.56 C309.549,593.56 318.856,602.867 318.856,614.348 C318.856,625.828 309.549,635.135 298.068,635.135 z" fill="#7A67FF"/>
      <path d="M324.927,632.51 C316.74,632.51 310.103,625.873 310.103,617.686 C310.103,609.499 316.74,602.862 324.927,602.862 C333.114,602.862 339.751,609.499 339.751,617.686 C339.751,625.873 333.114,632.51 324.927,632.51 z" fill="#7A67FF"/>
      <path d="M276.854,632.51 C272.014,632.51 268.09,628.586 268.09,623.746 C268.09,618.906 272.014,614.982 276.854,614.982 C281.694,614.982 285.618,618.906 285.618,623.746 C285.618,628.586 281.694,632.51 276.854,632.51 z" fill="#7A67FF"/>
      <path d="M277.281,622.882 L283.408,622.882 L283.408,671.897 L277.281,671.897 L277.281,622.882 z" fill="#7A67FF"/>
      <path d="M288.598,625.07 L299.777,625.07 L299.777,658.945 L288.598,658.945 L288.598,625.07 z" fill="#7A67FF"/>
      <path d="M307.089,625.07 L313.111,625.07 L313.111,686.762 L307.089,686.762 L307.089,625.07 z" fill="#7A67FF"/>
      <path d="M318.234,619.818 L323.854,619.818 L323.854,644.326 L318.234,644.326 L318.234,619.818 z" fill="#7A67FF"/>
      <path d="M280.344,678.899 C277.686,678.899 275.53,676.744 275.53,674.085 C275.53,671.426 277.686,669.271 280.344,669.271 C283.003,669.271 285.158,671.426 285.158,674.085 C285.158,676.744 283.003,678.899 280.344,678.899 z" fill="#7A67FF"/>
      <path d="M294.232,664.751 C291.169,664.751 288.686,662.268 288.686,659.205 C288.686,656.143 291.169,653.66 294.232,653.66 C297.294,653.66 299.777,656.143 299.777,659.205 C299.777,662.268 297.294,664.751 294.232,664.751 z" fill="#7A67FF"/>
      <path d="M310.261,694.654 C306.514,694.654 303.477,691.617 303.477,687.87 C303.477,684.124 306.514,681.087 310.261,681.087 C314.007,681.087 317.044,684.124 317.044,687.87 C317.044,691.617 314.007,694.654 310.261,694.654 z" fill="#7A67FF"/>
      <path d="M321.202,649.577 C318.906,649.577 317.044,647.716 317.044,645.42 C317.044,643.124 318.906,641.262 321.202,641.262 C323.498,641.262 325.359,643.124 325.359,645.42 C325.359,647.716 323.498,649.577 321.202,649.577 z" fill="#7A67FF"/>
      <path d="M344.61,619.818 C338.671,619.818 333.857,615.004 333.857,609.065 C333.857,603.126 338.671,598.312 344.61,598.312 C350.549,598.312 355.363,603.126 355.363,609.065 C355.363,615.004 350.549,619.818 344.61,619.818 z" fill="#7A67FF"/>
      <path d="M326.101,625.07 C318.712,625.07 312.722,619.08 312.722,611.691 C312.722,604.302 318.712,598.312 326.101,598.312 C333.49,598.312 339.48,604.302 339.48,611.691 C339.48,619.08 333.49,625.07 326.101,625.07 z" fill="#7A67FF"/>
    </g>
  </g>
</svg>
